/* XPM */
static char *brightness_high_20[] = {
/* columns rows colors chars-per-pixel */
"20 20 2 1 ",
"  c None",
". c #000000",
/* pixels */
"         ..         ",
"         ..         ",
"         ..         ",
"   .     ..     .   ",
"    .          .    ",
"     .   ..   .     ",
"       ......       ",
"      ........      ",
"      ........      ",
".... .......... ....",
".... .......... ....",
"      ........      ",
"      ........      ",
"       ......       ",
"     .   ..   .     ",
"    .          .    ",
"   .     ..     .   ",
"         ..         ",
"         ..         ",
"         ..         "
};
