<?xml version="1.0" encoding="UTF-8" standalone="no"?>
<svg
   version="1.1"
   width="240"
   height="240"
   viewBox="0 0 240 240"
   id="svg4"
   sodipodi:docname="volume.svg"
   inkscape:version="0.92.4 5da689c313, 2019-01-14"
   inkscape:export-filename="volume-medium.svg"
   inkscape:export-xdpi="96"
   inkscape:export-ydpi="96"
   xmlns:inkscape="http://www.inkscape.org/namespaces/inkscape"
   xmlns:sodipodi="http://sodipodi.sourceforge.net/DTD/sodipodi-0.dtd"
   xmlns="http://www.w3.org/2000/svg"
   xmlns:svg="http://www.w3.org/2000/svg"
   xmlns:rdf="http://www.w3.org/1999/02/22-rdf-syntax-ns#"
   xmlns:cc="http://creativecommons.org/ns#"
   xmlns:dc="http://purl.org/dc/elements/1.1/">
  <metadata
     id="metadata10">
    <rdf:RDF>
      <cc:Work
         rdf:about="">
        <dc:format>image/svg+xml</dc:format>
        <dc:type
           rdf:resource="http://purl.org/dc/dcmitype/StillImage" />
        <dc:title />
      </cc:Work>
    </rdf:RDF>
  </metadata>
  <defs
     id="defs8" />
  <sodipodi:namedview
     pagecolor="#ffffff"
     bordercolor="#666666"
     borderopacity="1"
     objecttolerance="10"
     gridtolerance="10"
     guidetolerance="10"
     inkscape:pageopacity="0"
     inkscape:pageshadow="2"
     inkscape:window-width="1321"
     inkscape:window-height="740"
     id="namedview6"
     showgrid="false"
     inkscape:pagecheckerboard="true"
     inkscape:zoom="0.98333333"
     inkscape:cx="-267.45763"
     inkscape:cy="120"
     inkscape:window-x="45"
     inkscape:window-y="28"
     inkscape:window-maximized="0"
     inkscape:current-layer="svg4"
     inkscape:showpageshadow="2"
     inkscape:deskcolor="#d1d1d1" />
  <path
     id="path2"
     style="fill:#ffffff;stroke-width:11.1111"
     d="m 161.44531,29.097656 c -0.0122,0.01585 -0.0282,0.03434 -0.041,0.05078 0.11315,0.03082 0.21689,0.04071 0.33203,0.07617 -0.096,-0.04432 -0.19489,-0.08292 -0.29102,-0.126953 z M 120,31.111328 64.445312,86.666016 H 20 V 153.33398 H 64.445312 L 120,208.88867 Z m 58.74023,8.074219 c 0.10373,0.364596 0.15981,0.762815 0.18555,1.177734 0.26649,-0.140922 0.52668,-0.295749 0.80078,-0.416015 -0.33301,-0.248636 -0.65014,-0.517144 -0.98633,-0.761719 z m -25.00195,2.179687 c 0.28457,0.29057 0.57471,0.576173 0.86719,0.859375 -0.0122,-0.06056 -0.0219,-0.121033 -0.0332,-0.18164 -0.27774,-0.20312 -0.55626,-0.426908 -0.83399,-0.677735 z m 7.39063,1.72461 c -0.0252,-0.0089 -0.0506,-0.0081 -0.0742,0.0098 -0.0891,0.06744 0.14229,0.192757 0.25,0.222657 0.0515,0.0143 0.10459,0.0331 0.15625,0.04883 -0.0338,-0.02973 -0.0657,-0.06222 -0.0996,-0.0918 -0.0766,-0.04518 -0.15687,-0.162808 -0.23242,-0.189453 z m -3.67188,1.359375 c -0.003,0.126852 -0.007,0.254116 -0.004,0.380859 0.003,0.0027 0.007,0.0051 0.01,0.0078 0.0116,-0.05005 0.0292,-0.132602 0.0234,-0.199219 -0.006,-0.06359 -0.021,-0.126181 -0.0293,-0.189453 z m 28.91406,0.923828 c 0.0915,0.237153 0.17249,0.478696 0.26172,0.716797 0.0873,-0.0368 0.16984,-0.08173 0.25781,-0.117188 0.0266,-0.01771 0.0516,-0.02435 0.0781,-0.04102 -0.20241,-0.182879 -0.39368,-0.37735 -0.59766,-0.558594 z m -21.13086,4.232422 c -0.009,0.002 -0.0149,0.0021 -0.0234,0.0039 -0.0125,0.0069 -0.0224,0.01679 -0.0352,0.02344 -0.064,0.03346 -0.12266,0.06004 -0.18555,0.0918 0.2356,0.113096 0.47315,0.181532 0.70899,0.138672 0.17413,-0.03164 -0.29017,-0.229402 -0.46485,-0.257812 z m 33.62696,9.05664 c 0.17664,0.70509 0.36154,1.408609 0.52929,2.115235 0.31844,-0.02756 0.68272,-0.03045 1.0254,-0.04492 -0.5138,-0.693906 -1.02354,-1.390305 -1.55469,-2.070313 z m -30.33203,0.558594 c -0.0131,0.005 -0.0259,0.01076 -0.0391,0.01563 0.0109,0.0087 0.0222,0.01682 0.0332,0.02539 z m 34.77929,5.726563 c 0.006,0.0504 0.0248,0.09821 0.0312,0.148437 0.0323,-0.0214 0.0639,-0.04417 0.0957,-0.06641 -0.009,-0.0134 -0.0165,-0.02763 -0.0254,-0.04102 -0.0475,-0.03025 -0.10551,-0.07729 -0.10157,-0.04102 z m 1.66016,2.480468 c 0.12175,0.389319 0.25328,0.775724 0.36523,1.167969 0.09,0.315194 0.16362,0.635001 0.25,0.951172 0.19535,-0.06973 0.39556,-0.116617 0.59766,-0.154297 -0.39187,-0.663559 -0.80623,-1.311222 -1.21289,-1.964844 z m -62.75195,60.291016 v 22.18164 c 0.0171,-0.11618 0.0406,-0.23127 0.0566,-0.34766 0.23459,-1.79255 0.45571,-3.58114 0.54101,-5.38867 0.0677,-1.43564 0.057,-2.52804 0.0234,-3.96875 -0.0166,-0.7112 -0.0467,-1.42376 -0.0703,-2.13476 -0.13693,-3.44982 -0.32844,-6.89679 -0.55078,-10.3418 z m 53.03711,11.89063 c -0.20239,0.77695 -0.46309,1.52822 -0.68946,2.29492 0.34156,-0.11493 0.69968,-0.2391 0.97461,-0.31641 -0.0964,-0.65917 -0.18836,-1.31952 -0.28515,-1.97851 z m -5.91407,15.4707 c -0.7865,1.5388 -1.6166,3.05168 -2.49804,4.53125 0.33438,-0.27107 0.64862,-0.56507 0.97851,-0.8418 -0.0246,-0.86118 0.4757,-1.63508 0.94922,-2.52148 0.21297,-0.37544 0.39381,-0.76437 0.58594,-1.14844 -0.006,-0.006 -0.01,-0.0135 -0.0156,-0.0195 z m -0.44922,1.79687 c -0.0101,0.002 -0.0213,0.006 -0.0312,0.008 -0.0357,0.006 -0.088,0.11562 -0.0625,0.0898 0.0318,-0.032 0.0628,-0.0649 0.0937,-0.0977 z m -9.97851,37.76953 c 0.0182,0.0197 0.029,0.0446 0.0469,0.0645 0.0135,-0.009 0.0275,-0.0166 0.041,-0.0254 -0.0297,-0.0114 -0.0583,-0.0271 -0.0879,-0.0391 z m -0.8457,0.32227 c 0.0114,0.0367 0.0172,0.0749 0.0293,0.11133 0.0171,0.0516 0.0919,0.10695 0.11524,0.11523 0.002,-0.002 0.005,-0.002 0.008,-0.004 -0.049,-0.0754 -0.10257,-0.1478 -0.15234,-0.22266 z m -15.76172,15.53711 c -0.23992,0.0435 -0.48096,0.0807 -0.71485,0.14844 -0.15112,0.0438 0.31797,-0.008 0.46875,-0.0527 0.0843,-0.0251 0.16298,-0.0667 0.2461,-0.0957 z" />
</svg>
