<?xml version="1.0" encoding="UTF-8" standalone="no"?>
<svg
   version="1.1"
   width="240"
   height="240"
   viewBox="0 0 240 240"
   id="svg4"
   sodipodi:docname="volume.svg"
   inkscape:version="0.92.4 5da689c313, 2019-01-14"
   xmlns:inkscape="http://www.inkscape.org/namespaces/inkscape"
   xmlns:sodipodi="http://sodipodi.sourceforge.net/DTD/sodipodi-0.dtd"
   xmlns="http://www.w3.org/2000/svg"
   xmlns:svg="http://www.w3.org/2000/svg"
   xmlns:rdf="http://www.w3.org/1999/02/22-rdf-syntax-ns#"
   xmlns:cc="http://creativecommons.org/ns#"
   xmlns:dc="http://purl.org/dc/elements/1.1/">
  <metadata
     id="metadata10">
    <rdf:RDF>
      <cc:Work
         rdf:about="">
        <dc:format>image/svg+xml</dc:format>
        <dc:type
           rdf:resource="http://purl.org/dc/dcmitype/StillImage" />
        <dc:title />
      </cc:Work>
    </rdf:RDF>
  </metadata>
  <defs
     id="defs8" />
  <sodipodi:namedview
     pagecolor="#ffffff"
     bordercolor="#666666"
     borderopacity="1"
     objecttolerance="10"
     gridtolerance="10"
     guidetolerance="10"
     inkscape:pageopacity="0"
     inkscape:pageshadow="2"
     inkscape:window-width="1321"
     inkscape:window-height="740"
     id="namedview6"
     showgrid="false"
     inkscape:pagecheckerboard="true"
     inkscape:zoom="0.98333333"
     inkscape:cx="-267.45763"
     inkscape:cy="120"
     inkscape:window-x="45"
     inkscape:window-y="28"
     inkscape:window-maximized="0"
     inkscape:current-layer="svg4"
     inkscape:showpageshadow="2"
     inkscape:deskcolor="#d1d1d1" />
  <path
     d="m 142.22222,22.555558 v 22.88889 c 32.11111,9.55555 55.55556,39.33333 55.55556,74.555552 0,35.22222 -23.44445,64.88888 -55.55556,74.44444 v 23 C 186.66667,207.33333 220,167.55555 220,120 220,72.444448 186.66667,32.666668 142.22222,22.555558 M 170,120 C 170,100.33333 158.88889,83.444448 142.22222,75.222228 V 164.44444 C 158.88889,156.55555 170,139.55555 170,120 M 20,86.666668 V 153.33333 H 64.444444 L 120,208.88888 V 31.111118 l -55.555556,55.55555 z"
     id="path2"
     inkscape:connector-curvature="0"
     style="fill:#ffffff;stroke-width:11.1111" />
  <path
     style="fill:#ff0000"
     d="M 39.010722,31.640032 216.53647,214.10954"
     id="path513" />
  <path
     style="fill:#ffffff;stroke-width:0.995118"
     d="M 30.635593,34.579573 214.95763,215.84746 229.57627,201.3712 45.254237,21.991525 Z"
     id="path517" />
</svg>
